<svg fill="none" xmlns="http://www.w3.org/2000/svg">
	<symbol id="logo">
    <path d="M16.75 1H13.8333L1 22.3415H4.79167L6.54167 19.2927L16.75 1Z" fill="#2C36F2"/>
		<path d="M2.75 26H27.25L16.75 7.09756L15 10.1463L20.25 19.2927L22 22.3415H4.79167H1L2.75 26Z" fill="#2C36F2"/>
		<path d="M22 22.3415L20.25 19.2927H9.75H6.54167L4.79167 22.3415H22Z" fill="#2C36F2"/>
		<path d="M27.25 26L29 22.3415L16.75 1L6.54167 19.2927H9.75L15 10.1463L16.75 7.09756L27.25 26Z" fill="#2C36F2"/>
		<path d="M15 10.1463L9.75 19.2927H20.25L15 10.1463Z" fill="#2C36F2"/>
		<path d="M27.25 26H2.75L1 22.3415M27.25 26L29 22.3415L16.75 1M27.25 26L16.75 7.09756L15 10.1463M16.75 1H13.8333L1 22.3415M16.75 1L6.54167 19.2927M1 22.3415H4.79167M15 10.1463L9.75 19.2927M15 10.1463L20.25 19.2927M9.75 19.2927H20.25M9.75 19.2927H6.54167M20.25 19.2927L22 22.3415H4.79167M6.54167 19.2927L4.79167 22.3415" stroke="#F6F7FF"/>
  </symbol>	

	<symbol id="logo-text">
		<path d="M13.1 15H10.08V3.24H6.58C6.5 3.85333 6.41333 4.52 6.32 5.24C6.24 5.96 6.14667 6.69333 6.04 7.44C5.94667 8.17333 5.84667 8.87333 5.74 9.54C5.63333 10.1933 5.52667 10.7733 5.42 11.28C5.24667 12.1067 5.01333 12.8133 4.72 13.4C4.44 13.9867 4.04667 14.4333 3.54 14.74C3.04667 15.0467 2.4 15.2 1.6 15.2C1.08 15.2 0.6 15.1267 0.16 14.98V12.5C0.333333 12.5533 0.5 12.6 0.66 12.64C0.833333 12.68 1.02 12.7 1.22 12.7C1.60667 12.7 1.9 12.5 2.1 12.1C2.31333 11.6867 2.52667 10.92 2.74 9.8C2.82 9.37333 2.93333 8.70667 3.08 7.8C3.22667 6.89333 3.38667 5.83333 3.56 4.62C3.74667 3.39333 3.92 2.09333 4.08 0.719999H13.1V15ZM16.7023 0.719999H19.4223V7.62C19.4223 7.95333 19.4157 8.32667 19.4023 8.74C19.389 9.15333 19.3757 9.56 19.3623 9.96C19.349 10.3467 19.3357 10.6867 19.3223 10.98C19.309 11.26 19.2957 11.4533 19.2823 11.56H19.3423L25.9423 0.719999H29.5623V15H26.8623V8.14C26.8623 7.78 26.869 7.38667 26.8823 6.96C26.8957 6.52 26.909 6.1 26.9223 5.7C26.949 5.3 26.969 4.95333 26.9823 4.66C27.009 4.35333 27.029 4.15333 27.0423 4.06H26.9623L20.3423 15H16.7023V0.719999ZM42.1872 0.719999V3.22H36.1872V15H33.1672V0.719999H42.1872ZM51.7119 15L50.6719 11.6H45.4719L44.4319 15H41.1719L46.2119 0.66H49.9119L54.9719 15H51.7119ZM49.9519 9.06L48.9119 5.74C48.8452 5.51333 48.7585 5.22667 48.6519 4.88C48.5452 4.53333 48.4385 4.18 48.3319 3.82C48.2252 3.46 48.1385 3.14667 48.0719 2.88C48.0052 3.14667 47.9119 3.48 47.7919 3.88C47.6852 4.26667 47.5785 4.64 47.4719 5C47.3785 5.34667 47.3052 5.59333 47.2519 5.74L46.2319 9.06H49.9519ZM62.5031 15V0.719999H71.5231V3.22H65.5231V6.2H66.7231C68.0698 6.2 69.1698 6.38667 70.0231 6.76C70.8898 7.13333 71.5298 7.64667 71.9431 8.3C72.3565 8.95333 72.5631 9.7 72.5631 10.54C72.5631 11.9533 72.0898 13.0533 71.1431 13.84C70.2098 14.6133 68.7165 15 66.6631 15H62.5031ZM65.5231 12.52H66.5431C67.4631 12.52 68.1831 12.3733 68.7031 12.08C69.2365 11.7867 69.5031 11.2733 69.5031 10.54C69.5031 9.78 69.2165 9.28 68.6431 9.04C68.0698 8.8 67.2898 8.68 66.3031 8.68H65.5231V12.52ZM79.497 3.86C80.9637 3.86 82.0837 4.18 82.857 4.82C83.6437 5.44667 84.037 6.41333 84.037 7.72V15H81.957L81.377 13.52H81.297C80.8304 14.1067 80.337 14.5333 79.817 14.8C79.297 15.0667 78.5837 15.2 77.677 15.2C76.7037 15.2 75.897 14.92 75.257 14.36C74.617 13.7867 74.297 12.9133 74.297 11.74C74.297 10.58 74.7037 9.72667 75.517 9.18C76.3304 8.62 77.5504 8.31333 79.177 8.26L81.077 8.2V7.72C81.077 7.14667 80.9237 6.72667 80.617 6.46C80.3237 6.19333 79.9104 6.06 79.377 6.06C78.8437 6.06 78.3237 6.14 77.817 6.3C77.3104 6.44667 76.8037 6.63333 76.297 6.86L75.317 4.84C75.9037 4.53333 76.5504 4.29333 77.257 4.12C77.977 3.94667 78.7237 3.86 79.497 3.86ZM81.077 9.94L79.917 9.98C78.957 10.0067 78.2904 10.18 77.917 10.5C77.5437 10.82 77.357 11.24 77.357 11.76C77.357 12.2133 77.4904 12.54 77.757 12.74C78.0237 12.9267 78.3704 13.02 78.797 13.02C79.437 13.02 79.977 12.8333 80.417 12.46C80.857 12.0733 81.077 11.5333 81.077 10.84V9.94ZM90.0673 4.08V8.28H94.2273V4.08H97.2073V15H94.2273V10.5H90.0673V15H87.0873V4.08H90.0673ZM107.49 4.08H110.77L106.45 9.32L111.15 15H107.77L103.31 9.46V15H100.33V4.08H103.31V9.38L107.49 4.08Z" fill="#1F1E25"/>
  </symbol>	

	<symbol id="icon-password">
     <path d="M2.22222 14.3H4.44444V19.8H17.7778V2.2H4.44444V7.7H2.22222V1.1C2.22222 0.808262 2.33929 0.528472 2.54766 0.322183C2.75603 0.115892 3.03865 0 3.33333 0H18.8889C19.1836 0 19.4662 0.115892 19.6746 0.322183C19.8829 0.528472 20 0.808262 20 1.1V20.9C20 21.1917 19.8829 21.4715 19.6746 21.6778C19.4662 21.8841 19.1836 22 18.8889 22H3.33333C3.03865 22 2.75603 21.8841 2.54766 21.6778C2.33929 21.4715 2.22222 21.1917 2.22222 20.9V14.3ZM8.88889 9.9V6.6L14.4444 11L8.88889 15.4V12.1H0V9.9H8.88889Z" fill="#1F1E25"/>
  </symbol>	

	<symbol id="facebook">
    <path d="M6 9.2H8.14286L9 6H6V4.4C6 3.576 6 2.8 7.71429 2.8H9V0.112C8.72057 0.0776001 7.66543 0 6.55114 0C4.224 0 2.57143 1.3256 2.57143 3.76V6H0V9.2H2.57143V16H6V9.2Z" fill="#1F1E25"/>
  </symbol>	

	<symbol id="instagram">
    <path d="M8 0C10.1736 0 10.4448 0.00799995 11.2976 0.048C12.1496 0.088 12.7296 0.2216 13.24 0.42C13.768 0.6232 14.2128 0.8984 14.6576 1.3424C15.0644 1.74232 15.3792 2.22607 15.58 2.76C15.7776 3.2696 15.912 3.8504 15.952 4.7024C15.9896 5.5552 16 5.8264 16 8C16 10.1736 15.992 10.4448 15.952 11.2976C15.912 12.1496 15.7776 12.7296 15.58 13.24C15.3797 13.7742 15.0649 14.2581 14.6576 14.6576C14.2576 15.0643 13.7738 15.379 13.24 15.58C12.7304 15.7776 12.1496 15.912 11.2976 15.952C10.4448 15.9896 10.1736 16 8 16C5.8264 16 5.5552 15.992 4.7024 15.952C3.8504 15.912 3.2704 15.7776 2.76 15.58C2.22586 15.3796 1.74202 15.0648 1.3424 14.6576C0.935525 14.2577 0.620745 13.774 0.42 13.24C0.2216 12.7304 0.088 12.1496 0.048 11.2976C0.0104 10.4448 0 10.1736 0 8C0 5.8264 0.00799995 5.5552 0.048 4.7024C0.088 3.8496 0.2216 3.2704 0.42 2.76C0.620189 2.22574 0.935043 1.74186 1.3424 1.3424C1.74214 0.935385 2.22594 0.620583 2.76 0.42C3.2704 0.2216 3.8496 0.088 4.7024 0.048C5.5552 0.0104 5.8264 0 8 0ZM8 4C6.93913 4 5.92172 4.42143 5.17157 5.17157C4.42143 5.92172 4 6.93913 4 8C4 9.06087 4.42143 10.0783 5.17157 10.8284C5.92172 11.5786 6.93913 12 8 12C9.06087 12 10.0783 11.5786 10.8284 10.8284C11.5786 10.0783 12 9.06087 12 8C12 6.93913 11.5786 5.92172 10.8284 5.17157C10.0783 4.42143 9.06087 4 8 4ZM13.2 3.8C13.2 3.53478 13.0946 3.28043 12.9071 3.09289C12.7196 2.90536 12.4652 2.8 12.2 2.8C11.9348 2.8 11.6804 2.90536 11.4929 3.09289C11.3054 3.28043 11.2 3.53478 11.2 3.8C11.2 4.06522 11.3054 4.31957 11.4929 4.50711C11.6804 4.69464 11.9348 4.8 12.2 4.8C12.4652 4.8 12.7196 4.69464 12.9071 4.50711C13.0946 4.31957 13.2 4.06522 13.2 3.8ZM8 5.6C8.63652 5.6 9.24697 5.85286 9.69706 6.30294C10.1471 6.75303 10.4 7.36348 10.4 8C10.4 8.63652 10.1471 9.24697 9.69706 9.69706C9.24697 10.1471 8.63652 10.4 8 10.4C7.36348 10.4 6.75303 10.1471 6.30294 9.69706C5.85286 9.24697 5.6 8.63652 5.6 8C5.6 7.36348 5.85286 6.75303 6.30294 6.30294C6.75303 5.85286 7.36348 5.6 8 5.6Z" fill="#1F1E25"/>
  </symbol>	

	<symbol id="twitter">
    <path d="M15.9992 1.54324C15.4 1.80812 14.7645 1.98209 14.1138 2.05937C14.7996 1.64947 15.313 1.00438 15.5581 0.244297C14.9144 0.627078 14.2088 0.895338 13.4733 1.04045C12.9793 0.512227 12.3245 0.161908 11.6106 0.0439529C10.8968 -0.0740019 10.164 0.047017 9.52611 0.388195C8.88822 0.729374 8.38099 1.2716 8.08329 1.93057C7.78559 2.58954 7.71409 3.32833 7.87991 4.0321C6.57465 3.96673 5.29775 3.62777 4.13209 3.03724C2.96644 2.4467 1.93809 1.6178 1.11381 0.604331C0.822049 1.10512 0.668725 1.67441 0.669545 2.2539C0.669545 3.39126 1.24882 4.39606 2.12951 4.98435C1.60833 4.96795 1.09861 4.8273 0.642857 4.57411V4.6149C0.643014 5.37238 0.905313 6.1065 1.38528 6.69279C1.86525 7.27907 2.53335 7.68144 3.27629 7.83167C2.79248 7.96269 2.28517 7.98201 1.79278 7.88815C2.00225 8.54016 2.41052 9.11038 2.96043 9.51897C3.51034 9.92757 4.17436 10.1541 4.8595 10.1668C4.17856 10.7012 3.39888 11.0963 2.56506 11.3294C1.73123 11.5625 0.859598 11.6291 0 11.5253C1.50055 12.4897 3.24733 13.0017 5.0314 13C11.0699 13 14.3721 8.0011 14.3721 3.66579C14.3721 3.5246 14.3681 3.38184 14.3619 3.24222C15.0046 2.778 15.5593 2.20293 16 1.54403L15.9992 1.54324Z" fill="#1F1E25"/>
  </symbol>	

	<symbol id="youtube">
    <path d="M15.6344 2.02963C16 3.4775 16 6.5 16 6.5C16 6.5 16 9.5225 15.6344 10.9704C15.4312 11.7707 14.8368 12.4004 14.084 12.6132C12.7168 13 8 13 8 13C8 13 3.2856 13 1.916 12.6132C1.16 12.3971 0.5664 11.7683 0.3656 10.9704C2.38419e-08 9.5225 0 6.5 0 6.5C0 6.5 2.38419e-08 3.4775 0.3656 2.02963C0.5688 1.22931 1.1632 0.599625 1.916 0.38675C3.2856 -1.45286e-07 8 0 8 0C8 0 12.7168 -1.45286e-07 14.084 0.38675C14.84 0.602875 15.4336 1.23175 15.6344 2.02963ZM6.4 9.34375L11.2 6.5L6.4 3.65625V9.34375Z" fill="#1F1E25"/>
  </symbol>

	<symbol id="hotline-mobile">
    <path d="M8.8373 0H1.1627C0.523313 0 0 0.485943 0 1.08069V14.9189C0 15.5136 0.523313 16 1.1627 16H8.8373C9.47669 16 10 15.5145 10 14.9193V1.08069C10 0.485943 9.47669 0 8.8373 0ZM3.77238 0.778971H6.22762C6.30533 0.778971 6.36829 0.837486 6.36829 0.910171C6.36829 0.9824 6.30533 1.04091 6.22762 1.04091H3.77238C3.69467 1.04091 3.63171 0.9824 3.63171 0.910171C3.63171 0.837486 3.69467 0.778971 3.77238 0.778971ZM5 15.4597C4.67883 15.4597 4.41865 15.2178 4.41865 14.9189C4.41865 14.6199 4.67883 14.3785 5 14.3785C5.32117 14.3785 5.58135 14.6199 5.58135 14.9189C5.58135 15.2178 5.32117 15.4597 5 15.4597ZM9.19093 14H0.809069V1.71383H9.19093V14Z" fill="#1F1E25"/>
  </symbol>

	<symbol id="hotline-call">
    <path d="M15.9991 11.9282V15.0712C15.9992 15.2962 15.914 15.5129 15.7605 15.6775C15.6071 15.8422 15.397 15.9425 15.1725 15.9582C14.7841 15.9849 14.4668 15.9991 14.2214 15.9991C6.36676 15.9991 0 9.63235 0 1.77768C0 1.53236 0.0133326 1.21504 0.0408866 0.826621C0.056639 0.602139 0.156952 0.391988 0.321585 0.238572C0.486218 0.0851569 0.702915 -0.000101713 0.927949 2.28058e-07H4.07089C4.18114 -0.000111402 4.28749 0.0407613 4.36929 0.114678C4.4511 0.188596 4.5025 0.29028 4.51353 0.399978C4.53397 0.604411 4.55264 0.767069 4.57041 0.890617C4.74706 2.12337 5.10905 3.32233 5.64413 4.44687C5.72857 4.62463 5.67346 4.83706 5.51347 4.95084L3.59536 6.32143C4.76814 9.05412 6.94588 11.2319 9.67857 12.4046L11.0474 10.4901C11.1033 10.4119 11.185 10.3558 11.278 10.3316C11.3711 10.3074 11.4697 10.3166 11.5567 10.3576C12.6811 10.8917 13.8797 11.2528 15.1121 11.4287C15.2356 11.4465 15.3983 11.466 15.6009 11.4856C15.7105 11.4968 15.8119 11.5483 15.8857 11.6301C15.9594 11.7119 16.0001 11.8181 16 11.9282H15.9991Z" fill="#1F1E25"/>
  </symbol>

	<symbol id="select-arrow">
    <path d="M1 1L9 9L17 1" stroke="#1F1E25" stroke-width="2"/>
  </symbol>

	<symbol id="calendar">
    <path d="M1 14.1828H40" stroke="black"/>
		<path d="M8 1L8.09082 10.7419" stroke="black"/>
		<path d="M33 1V11" stroke="black"/>
		<path d="M40 40V9C40 7.34315 38.6569 6 37 6H4C2.34315 6 1 7.34315 1 9V40C1 41.6569 2.34315 43 4 43H37C38.6569 43 40 41.6569 40 40Z" stroke="black"/>
		<path d="M5 19H8" stroke="#2C36F2" stroke-width="3"/>
		<path d="M12.0908 19H15.0908" stroke="#2C36F2" stroke-width="3"/>
		<path d="M19.1816 19H22.1816" stroke="#2C36F2" stroke-width="3"/>
		<path d="M26.2725 19H29.2725" stroke="#2C36F2" stroke-width="3"/>
		<path d="M33.3633 19H36.3633" stroke="#2C36F2" stroke-width="3"/>
		<path d="M5 25H8" stroke="#2C36F2" stroke-width="3"/>
		<path d="M12.0908 25H15.0908" stroke="#2C36F2" stroke-width="3"/>
		<path d="M19.1816 25H22.1816" stroke="#2C36F2" stroke-width="3"/>
		<path d="M26.2725 25H29.2725" stroke="#2C36F2" stroke-width="3"/>
		<path d="M33.3633 25H36.3633" stroke="#2C36F2" stroke-width="3"/>
		<path d="M5 31H8" stroke="#2C36F2" stroke-width="3"/>
		<path d="M12.0908 31H15.0908" stroke="#2C36F2" stroke-width="3"/>
		<path d="M19.1816 31H22.1816" stroke="#2C36F2" stroke-width="3"/>
		<path d="M26.2725 31H29.2725" stroke="#2C36F2" stroke-width="3"/>
		<path d="M33.3633 31H36.3633" stroke="#2C36F2" stroke-width="3"/>
		<path d="M5 37H8" stroke="#2C36F2" stroke-width="3"/>
		<path d="M12.0908 37H15.0908" stroke="#2C36F2" stroke-width="3"/>
		<path d="M19.1816 37H22.1816" stroke="#2C36F2" stroke-width="3"/>
		<path d="M26.2725 37H29.2725" stroke="#2C36F2" stroke-width="3"/>
		<path d="M33.3633 37H36.3633" stroke="#2C36F2" stroke-width="3"/>
  </symbol>
</svg>
